<svg height="2048" viewBox="0 0 2048 2048" width="2048" xmlns="http://www.w3.org/2000/svg"><path d="m2048 0v64q0 182-32 340-32 158-99 299-67 141-166 268-99 127-234 249l-191 572h-302v-227q-138 81-279 156l-418-418q75-141 156-279h-227v-302l572-190q121-135 248-235 127-100 269-166 142-66 299-98 157-32 340-33zm-1490 896q29-46 58-91 29-45 62-89l-294 98v82zm211 666q51-29 102-57 51-28 102-58l-372-372q-29 51-57 102-28 51-58 103zm563-192q-44 32-89 61-45 29-91 59v174h82zm183-327q99-99 172-201 73-102 124-214 51-112 76-235 25-123 32-264-140 5-263 31-123 26-235 77-112 51-215 123-103 72-203 172-99 97-181 204-82 107-154 226l418 418q118-72 225-154 107-82 204-183zm-235-19q-53 0-99-20-46-20-82-55-36-35-55-81-19-46-20-100 0-53 20-99 20-46 55-82 35-36 81-55 46-19 100-20 53 0 99 20 46 20 82 55 36 35 55 81 19 46 20 100 0 53-20 99-20 46-55 82-35 36-81 55-46 19-100 20zm0-384q-27 0-50 10-23 10-40 27-17 17-28 41-11 24-10 50 0 27 10 50 10 23 27 40 17 17 41 28 24 11 50 10 27 0 50-10 23-10 40-27 17-17 28-41 11-24 10-50 0-27-10-50-10-23-27-40-17-17-41-28-24-11-50-10zm-1024 896q53 0 99 20 46 20 82 55 36 35 55 81 19 46 20 100 0 53-20 99-20 46-55 82-35 36-81 55-46 19-100 20h-256v-256q0-53 20-99 20-46 55-82 35-36 81-55 46-19 100-20zm0 384q27 0 50-10 23-10 40-27 17-17 28-41 11-24 10-50 0-27-10-50-10-23-27-40-17-17-41-28-24-11-50-10-27 0-50 10-23 10-40 27-17 17-28 41-11 24-10 50v128z"/></svg>